# File exported by Houdini 16.0.600 (www.sidefx.com)
# 48 points
# 192 vertices
# 48 primitives
# Bounds: [-0.670000017, -0.147224322, -0.670000017] to [0.670000017, 0.147224382, 0.670000017]
g 
v 0.670000017 -1.48618717e-08 -2.02334377e-07
v 0.473761499 -1.48618717e-08 -0.473761618
v 7.98967026e-09 -1.48618717e-08 -0.670000017
v -0.473761469 -1.48618717e-08 -0.473761618
v -0.670000017 -1.48618717e-08 -5.857326e-08
v -0.473761559 -1.48618717e-08 0.473761559
v -2.928663e-08 -1.48618717e-08 0.670000017
v 0.473761559 -1.48618717e-08 0.473761559
v 0.584999979 -0.147224322 -1.76665083e-07
v 0.413657397 -0.147224322 -0.413657516
v 6.97605484e-09 -0.147224322 -0.584999979
v -0.413657367 -0.147224322 -0.413657516
v -0.584999979 -0.147224322 -5.11423224e-08
v -0.413657457 -0.147224322 0.413657457
v -2.55711612e-08 -0.147224322 0.584999979
v 0.413657457 -0.147224322 0.413657457
v 0.415000021 -0.147224322 -1.25326522e-07
v 0.293449312 -0.147224322 -0.293449372
v 4.94882579e-09 -0.147224322 -0.415000021
v -0.293449283 -0.147224322 -0.293449372
v -0.415000021 -0.147224322 -3.62804542e-08
v -0.293449312 -0.147224322 0.293449312
v -1.81402271e-08 -0.147224322 0.415000021
v 0.293449312 -0.147224322 0.293449312
v 0.329999983 -5.13385743e-08 -9.96572211e-08
v 0.233345196 -5.13385743e-08 -0.233345255
v 3.93521038e-09 -5.13385743e-08 -0.329999983
v -0.233345181 -5.13385743e-08 -0.233345255
v -0.329999983 -5.13385743e-08 -2.88495148e-08
v -0.233345225 -5.13385743e-08 0.233345225
v -1.44247574e-08 -5.13385743e-08 0.329999983
v 0.233345225 -5.13385743e-08 0.233345225
v 0.414999932 0.147224277 -1.25326494e-07
v 0.293449223 0.147224277 -0.293449312
v 4.94882446e-09 0.147224277 -0.414999932
v -0.293449223 0.147224277 -0.293449312
v -0.414999932 0.147224277 -3.62804471e-08
v -0.293449253 0.147224277 0.293449253
v -1.81402235e-08 0.147224277 0.414999932
v 0.293449253 0.147224277 0.293449253
v 0.584999919 0.147224382 -1.76665068e-07
v 0.413657367 0.147224382 -0.413657486
v 6.9760544e-09 0.147224382 -0.584999919
v -0.413657337 0.147224382 -0.413657486
v -0.584999919 0.147224382 -5.11423188e-08
v -0.413657397 0.147224382 0.413657397
v -2.55711594e-08 0.147224382 0.584999919
v 0.413657397 0.147224382 0.413657397
vt 0.182407349 0.526367366 0
vt 0.182407349 0.46968323 0
vt 0.341673344 0.46968323 0
vt 0.364814579 0.526367366 0
vt 0 0.658946633 0
vt 0.0231412295 0.602262437 0
vt 0.182407245 0.602262437 0
vt 0.182407245 0.658946633 0
vt 0.182407245 0.658946633 0
vt 0.182407245 0.602262437 0
vt 0.341673255 0.602262437 0
vt 0.36481449 0.658946633 0
vt 0.46968326 0.526367366 0
vt 0.492824465 0.46968317 0
vt 0.652090549 0.46968317 0
vt 0.652090549 0.526367366 0
vt 0.652090549 0.526367366 0
vt 0.652090549 0.46968317 0
vt 0.811356544 0.46968317 0
vt 0.834497809 0.526367366 0
vt 0.46968323 0.658946574 0
vt 0.492824465 0.602262378 0
vt 0.65209049 0.602262378 0
vt 0.65209049 0.658946574 0
vt 0.65209049 0.658946574 0
vt 0.65209049 0.602262378 0
vt 0.811356544 0.602262378 0
vt 0.834497809 0.658946574 0
vt 0 0.526367366 0
vt 0.0231412295 0.46968323 0
vt 0.182407349 0.46968323 0
vt 0.182407349 0.526367366 0
vt 0.450472385 0.225236133 0
vt 0.385019153 0.225236148 0
vt 0.338219821 0.112252571 0
vt 0.384502202 0.0659701303 0
vt 0.384502202 0.0659701303 0
vt 0.338219821 0.112252571 0
vt 0.225236192 0.0654532388 0
vt 0.225236192 0 0
vt 0.225236192 0 0
vt 0.225236192 0.0654532388 0
vt 0.1122526 0.112252571 0
vt 0.0659701899 0.0659701303 0
vt 0.0659701899 0.0659701303 0
vt 0.1122526 0.112252571 0
vt 0.0654532388 0.225236177 0
vt 0 0.225236177 0
vt 0 0.225236177 0
vt 0.0654532388 0.225236177 0
vt 0.112252593 0.338219821 0
vt 0.0659701526 0.384502262 0
vt 0.0659701526 0.384502262 0
vt 0.112252593 0.338219821 0
vt 0.225236192 0.385019153 0
vt 0.225236192 0.450472385 0
vt 0.225236192 0.450472385 0
vt 0.225236192 0.385019153 0
vt 0.338219821 0.338219821 0
vt 0.384502262 0.384502262 0
vt 0.384502262 0.384502262 0
vt 0.338219821 0.338219821 0
vt 0.385019153 0.225236148 0
vt 0.450472385 0.225236133 0
vt 0.582666814 0.734841585 0
vt 0.582666814 0.791525781 0
vt 0.492824465 0.791525781 0
vt 0.46968323 0.734841585 0
vt 0.225967184 0.867420793 0
vt 0.202825963 0.924105048 0
vt 0.112983592 0.924105048 0
vt 0.112983592 0.867420793 0
vt 0.112983592 0.867420793 0
vt 0.112983592 0.924105048 0
vt 0.0231412295 0.924105048 0
vt 0 0.867420793 0
vt 0.225967228 0.734841645 0
vt 0.202825993 0.791525841 0
vt 0.112983614 0.791525841 0
vt 0.112983614 0.734841645 0
vt 0.112983614 0.734841645 0
vt 0.112983614 0.791525841 0
vt 0.0231412239 0.791525841 0
vt 0 0.734841645 0
vt 0.940828443 0.734841585 0
vt 0.917687237 0.791525781 0
vt 0.827844799 0.791525781 0
vt 0.827844799 0.734841585 0
vt 0.827844799 0.734841585 0
vt 0.827844799 0.791525781 0
vt 0.738002419 0.791525781 0
vt 0.714861214 0.734841585 0
vt 0.695650458 0.734841585 0
vt 0.672509253 0.791525781 0
vt 0.582666814 0.791525781 0
vt 0.582666814 0.734841585 0
vt 0.582666814 0.791525781 0
vt 0.582666814 0.848209918 0
vt 0.46968326 0.848209918 0
vt 0.492824465 0.791525781 0
vt 0.202825963 0.924105048 0
vt 0.225967169 0.980789185 0
vt 0.112983592 0.980789185 0
vt 0.112983592 0.924105048 0
vt 0.112983592 0.924105048 0
vt 0.112983592 0.980789185 0
vt 2.29489299e-08 0.980789185 0
vt 0.0231412295 0.924105048 0
vt 0.202825993 0.791525841 0
vt 0.225967214 0.848209977 0
vt 0.112983614 0.848209977 0
vt 0.112983614 0.791525841 0
vt 0.112983614 0.791525841 0
vt 0.112983614 0.848209977 0
vt 2.29489299e-08 0.848209977 0
vt 0.0231412239 0.791525841 0
vt 0.917687237 0.791525781 0
vt 0.940828383 0.848209918 0
vt 0.827844799 0.848209918 0
vt 0.827844799 0.791525781 0
vt 0.827844799 0.791525781 0
vt 0.827844799 0.848209918 0
vt 0.714861214 0.848209918 0
vt 0.738002419 0.791525781 0
vt 0.672509253 0.791525781 0
vt 0.695650458 0.848209918 0
vt 0.582666814 0.848209918 0
vt 0.582666814 0.791525781 0
vt 0.854702353 0.225236222 0
vt 0.920155525 0.225236237 0
vt 0.854185402 0.384502232 0
vt 0.807902932 0.338219762 0
vt 0.807902932 0.338219762 0
vt 0.854185402 0.384502232 0
vt 0.694919407 0.450472355 0
vt 0.694919407 0.385019094 0
vt 0.694919407 0.385019094 0
vt 0.694919407 0.450472355 0
vt 0.535653412 0.384502232 0
vt 0.581935823 0.338219762 0
vt 0.581935823 0.338219762 0
vt 0.535653412 0.384502232 0
vt 0.46968323 0.225236192 0
vt 0.535136461 0.225236192 0
vt 0.535136461 0.225236192 0
vt 0.46968323 0.225236192 0
vt 0.535653353 0.0659701526 0
vt 0.581935823 0.112252593 0
vt 0.581935823 0.112252593 0
vt 0.535653353 0.0659701526 0
vt 0.694919407 0 0
vt 0.694919407 0.0654532537 0
vt 0.694919407 0.0654532537 0
vt 0.694919407 0 0
vt 0.854185402 0.0659701526 0
vt 0.807902932 0.112252593 0
vt 0.807902932 0.112252593 0
vt 0.854185402 0.0659701526 0
vt 0.920155525 0.225236237 0
vt 0.854702353 0.225236222 0
vt 0.182407349 0.583051622 0
vt 0.182407349 0.526367366 0
vt 0.364814579 0.526367366 0
vt 0.341673315 0.583051622 0
vt 0.0231412426 0.715630829 0
vt 0 0.658946633 0
vt 0.182407245 0.658946633 0
vt 0.182407245 0.715630829 0
vt 0.182407245 0.715630829 0
vt 0.182407245 0.658946633 0
vt 0.36481449 0.658946633 0
vt 0.341673255 0.715630829 0
vt 0.492824495 0.583051562 0
vt 0.46968326 0.526367366 0
vt 0.652090549 0.526367366 0
vt 0.652090549 0.583051562 0
vt 0.652090549 0.583051562 0
vt 0.652090549 0.526367366 0
vt 0.834497809 0.526367366 0
vt 0.811356544 0.583051562 0
vt 0.492824465 0.715630829 0
vt 0.46968323 0.658946574 0
vt 0.65209049 0.658946574 0
vt 0.65209049 0.715630829 0
vt 0.65209049 0.715630829 0
vt 0.65209049 0.658946574 0
vt 0.834497809 0.658946574 0
vt 0.811356485 0.715630829 0
vt 0.0231412537 0.583051622 0
vt 0 0.526367366 0
vt 0.182407349 0.526367366 0
vt 0.182407349 0.583051622 0
vn 1 2.65259814e-08 -2.05576356e-07
vn 0.582076609 -0.813133836 -1.20684803e-07
vn 0.411590338 -0.813133955 -0.411590427
vn 0.70710665 -1.3262988e-08 -0.707106888
vn 0.70710665 -1.3262988e-08 -0.707106888
vn 0.411590338 -0.813133955 -0.411590427
vn -2.41369591e-08 -0.813133895 -0.58207655
vn -1.98944825e-08 1.32629889e-08 -1
vn -1.98944825e-08 1.32629889e-08 -1
vn -2.41369591e-08 -0.813133895 -0.58207655
vn -0.411590278 -0.813133955 -0.411590368
vn -0.707106709 -2.65259779e-08 -0.707106888
vn -0.707106709 -2.65259779e-08 -0.707106888
vn -0.411590278 -0.813133955 -0.411590368
vn -0.582076609 -0.813133836 -7.24108844e-08
vn -1 0 -9.94724303e-08
vn -1 0 -9.94724303e-08
vn -0.582076609 -0.813133836 -7.24108844e-08
vn -0.411590397 -0.813133836 0.411590308
vn -0.707106829 5.30519628e-08 0.707106829
vn -0.707106829 5.30519628e-08 0.707106829
vn -0.411590397 -0.813133836 0.411590308
vn -1.20684795e-08 -0.813133895 0.58207655
vn -1.98944861e-08 0 1
vn -1.98944861e-08 0 1
vn -1.20684795e-08 -0.813133895 0.58207655
vn 0.411590368 -0.813133955 0.411590338
vn 0.707106829 5.30519628e-08 0.707106709
vn 0.707106829 5.30519628e-08 0.707106709
vn 0.411590368 -0.813133955 0.411590338
vn 0.582076609 -0.813133836 -1.20684803e-07
vn 1 2.65259814e-08 -2.05576356e-07
vn 0.582076609 -0.813133836 -1.20684803e-07
vn -0.395112902 -0.918632627 5.7644165e-08
vn -0.279386938 -0.918632627 0.279386997
vn 0.411590338 -0.813133955 -0.411590427
vn 0.411590338 -0.813133955 -0.411590427
vn -0.279386938 -0.918632627 0.279386997
vn 5.24037791e-09 -0.918632567 0.395112872
vn -2.41369591e-08 -0.813133895 -0.58207655
vn -2.41369591e-08 -0.813133895 -0.58207655
vn 5.24037791e-09 -0.918632567 0.395112872
vn 0.279386967 -0.918632627 0.279387027
vn -0.411590278 -0.813133955 -0.411590368
vn -0.411590278 -0.813133955 -0.411590368
vn 0.279386967 -0.918632627 0.279387027
vn 0.395112872 -0.918632627 5.24037835e-09
vn -0.582076609 -0.813133836 -7.24108844e-08
vn -0.582076609 -0.813133836 -7.24108844e-08
vn 0.395112872 -0.918632627 5.24037835e-09
vn 0.279387087 -0.918632507 -0.279387057
vn -0.411590397 -0.813133836 0.411590308
vn -0.411590397 -0.813133836 0.411590308
vn 0.279387087 -0.918632507 -0.279387057
vn 0 -0.918632627 -0.395112872
vn -1.20684795e-08 -0.813133895 0.58207655
vn -1.20684795e-08 -0.813133895 0.58207655
vn 0 -0.918632627 -0.395112872
vn -0.279387057 -0.918632627 -0.279387027
vn 0.411590368 -0.813133955 0.411590338
vn 0.411590368 -0.813133955 0.411590338
vn -0.279387057 -0.918632627 -0.279387027
vn -0.395112902 -0.918632627 5.7644165e-08
vn 0.582076609 -0.813133836 -1.20684803e-07
vn -0.395112902 -0.918632627 5.7644165e-08
vn -1 -3.42102595e-07 1.65867931e-07
vn -0.707106709 -3.52469328e-07 0.707106888
vn -0.279386938 -0.918632627 0.279386997
vn -0.279386938 -0.918632627 0.279386997
vn -0.707106709 -3.52469328e-07 0.707106888
vn 2.07334896e-08 -3.213691e-07 1
vn 5.24037791e-09 -0.918632567 0.395112872
vn 5.24037791e-09 -0.918632567 0.395112872
vn 2.07334896e-08 -3.213691e-07 1
vn 0.707106709 -3.11002367e-07 0.707106829
vn 0.279386967 -0.918632627 0.279387027
vn 0.279386967 -0.918632627 0.279387027
vn 0.707106709 -3.11002367e-07 0.707106829
vn 1 -3.21369129e-07 8.29339655e-08
vn 0.395112872 -0.918632627 5.24037835e-09
vn 0.395112872 -0.918632627 5.24037835e-09
vn 1 -3.21369129e-07 8.29339655e-08
vn 0.707106829 -3.52469357e-07 -0.707106769
vn 0.279387087 -0.918632507 -0.279387057
vn 0.279387087 -0.918632507 -0.279387057
vn 0.707106829 -3.52469357e-07 -0.707106769
vn 1.03667448e-08 -3.213691e-07 -1
vn 0 -0.918632627 -0.395112872
vn 0 -0.918632627 -0.395112872
vn 1.03667448e-08 -3.213691e-07 -1
vn -0.707106888 -3.21369072e-07 -0.707106709
vn -0.279387057 -0.918632627 -0.279387027
vn -0.279387057 -0.918632627 -0.279387027
vn -0.707106888 -3.21369072e-07 -0.707106709
vn -1 -3.42102595e-07 1.65867931e-07
vn -0.395112902 -0.918632627 5.7644165e-08
vn -1 -3.42102595e-07 1.65867931e-07
vn -0.395113468 0.918632388 6.28845811e-08
vn -0.279387385 0.918632388 0.279387474
vn -0.707106709 -3.52469328e-07 0.707106888
vn -0.707106709 -3.52469328e-07 0.707106888
vn -0.279387385 0.918632388 0.279387474
vn 0 0.918632388 0.395113528
vn 2.07334896e-08 -3.213691e-07 1
vn 2.07334896e-08 -3.213691e-07 1
vn 0 0.918632388 0.395113528
vn 0.279387355 0.918632388 0.279387385
vn 0.707106709 -3.11002367e-07 0.707106829
vn 0.707106709 -3.11002367e-07 0.707106829
vn 0.279387355 0.918632388 0.279387385
vn 0.395113468 0.918632388 5.24038857e-09
vn 1 -3.21369129e-07 8.29339655e-08
vn 1 -3.21369129e-07 8.29339655e-08
vn 0.395113468 0.918632388 5.24038857e-09
vn 0.279387474 0.918632269 -0.279387414
vn 0.707106829 -3.52469357e-07 -0.707106769
vn 0.707106829 -3.52469357e-07 -0.707106769
vn 0.279387474 0.918632269 -0.279387414
vn 5.24038901e-09 0.918632388 -0.395113498
vn 1.03667448e-08 -3.213691e-07 -1
vn 1.03667448e-08 -3.213691e-07 -1
vn 5.24038901e-09 0.918632388 -0.395113498
vn -0.279387444 0.918632269 -0.279387444
vn -0.707106888 -3.21369072e-07 -0.707106709
vn -0.707106888 -3.21369072e-07 -0.707106709
vn -0.279387444 0.918632269 -0.279387444
vn -0.395113468 0.918632388 6.28845811e-08
vn -1 -3.42102595e-07 1.65867931e-07
vn -0.395113468 0.918632388 6.28845811e-08
vn 0.58207643 0.813134134 -7.24108986e-08
vn 0.411590099 0.813134015 -0.411590248
vn -0.279387385 0.918632388 0.279387474
vn -0.279387385 0.918632388 0.279387474
vn 0.411590099 0.813134015 -0.411590248
vn -2.41369644e-08 0.813134074 -0.58207643
vn 0 0.918632388 0.395113528
vn 0 0.918632388 0.395113528
vn -2.41369644e-08 0.813134074 -0.58207643
vn -0.411590159 0.813134015 -0.411590308
vn 0.279387355 0.918632388 0.279387385
vn 0.279387355 0.918632388 0.279387385
vn -0.411590159 0.813134015 -0.411590308
vn -0.58207643 0.813134074 -4.8273936e-08
vn 0.395113468 0.918632388 5.24038857e-09
vn 0.395113468 0.918632388 5.24038857e-09
vn -0.58207643 0.813134074 -4.8273936e-08
vn -0.411590129 0.813134193 0.411590129
vn 0.279387474 0.918632269 -0.279387414
vn 0.279387474 0.918632269 -0.279387414
vn -0.411590129 0.813134193 0.411590129
vn 0 0.813134074 0.58207643
vn 5.24038901e-09 0.918632388 -0.395113498
vn 5.24038901e-09 0.918632388 -0.395113498
vn 0 0.813134074 0.58207643
vn 0.411590129 0.813134193 0.41159007
vn -0.279387444 0.918632269 -0.279387444
vn -0.279387444 0.918632269 -0.279387444
vn 0.411590129 0.813134193 0.41159007
vn 0.58207643 0.813134134 -7.24108986e-08
vn -0.395113468 0.918632388 6.28845811e-08
vn 0.58207643 0.813134134 -7.24108986e-08
vn 1 2.65259814e-08 -2.05576356e-07
vn 0.70710665 -1.3262988e-08 -0.707106888
vn 0.411590099 0.813134015 -0.411590248
vn 0.411590099 0.813134015 -0.411590248
vn 0.70710665 -1.3262988e-08 -0.707106888
vn -1.98944825e-08 1.32629889e-08 -1
vn -2.41369644e-08 0.813134074 -0.58207643
vn -2.41369644e-08 0.813134074 -0.58207643
vn -1.98944825e-08 1.32629889e-08 -1
vn -0.707106709 -2.65259779e-08 -0.707106888
vn -0.411590159 0.813134015 -0.411590308
vn -0.411590159 0.813134015 -0.411590308
vn -0.707106709 -2.65259779e-08 -0.707106888
vn -1 0 -9.94724303e-08
vn -0.58207643 0.813134074 -4.8273936e-08
vn -0.58207643 0.813134074 -4.8273936e-08
vn -1 0 -9.94724303e-08
vn -0.707106829 5.30519628e-08 0.707106829
vn -0.411590129 0.813134193 0.411590129
vn -0.411590129 0.813134193 0.411590129
vn -0.707106829 5.30519628e-08 0.707106829
vn -1.98944861e-08 0 1
vn 0 0.813134074 0.58207643
vn 0 0.813134074 0.58207643
vn -1.98944861e-08 0 1
vn 0.707106829 5.30519628e-08 0.707106709
vn 0.411590129 0.813134193 0.41159007
vn 0.411590129 0.813134193 0.41159007
vn 0.707106829 5.30519628e-08 0.707106709
vn 1 2.65259814e-08 -2.05576356e-07
vn 0.58207643 0.813134134 -7.24108986e-08
g torus
f 1/1/1 9/2/2 10/3/3 2/4/4
f 2/5/5 10/6/6 11/7/7 3/8/8
f 3/9/9 11/10/10 12/11/11 4/12/12
f 4/13/13 12/14/14 13/15/15 5/16/16
f 5/17/17 13/18/18 14/19/19 6/20/20
f 6/21/21 14/22/22 15/23/23 7/24/24
f 7/25/25 15/26/26 16/27/27 8/28/28
f 8/29/29 16/30/30 9/31/31 1/32/32
f 9/33/33 17/34/34 18/35/35 10/36/36
f 10/37/37 18/38/38 19/39/39 11/40/40
f 11/41/41 19/42/42 20/43/43 12/44/44
f 12/45/45 20/46/46 21/47/47 13/48/48
f 13/49/49 21/50/50 22/51/51 14/52/52
f 14/53/53 22/54/54 23/55/55 15/56/56
f 15/57/57 23/58/58 24/59/59 16/60/60
f 16/61/61 24/62/62 17/63/63 9/64/64
f 17/65/65 25/66/66 26/67/67 18/68/68
f 18/69/69 26/70/70 27/71/71 19/72/72
f 19/73/73 27/74/74 28/75/75 20/76/76
f 20/77/77 28/78/78 29/79/79 21/80/80
f 21/81/81 29/82/82 30/83/83 22/84/84
f 22/85/85 30/86/86 31/87/87 23/88/88
f 23/89/89 31/90/90 32/91/91 24/92/92
f 24/93/93 32/94/94 25/95/95 17/96/96
f 25/97/97 33/98/98 34/99/99 26/100/100
f 26/101/101 34/102/102 35/103/103 27/104/104
f 27/105/105 35/106/106 36/107/107 28/108/108
f 28/109/109 36/110/110 37/111/111 29/112/112
f 29/113/113 37/114/114 38/115/115 30/116/116
f 30/117/117 38/118/118 39/119/119 31/120/120
f 31/121/121 39/122/122 40/123/123 32/124/124
f 32/125/125 40/126/126 33/127/127 25/128/128
f 33/129/129 41/130/130 42/131/131 34/132/132
f 34/133/133 42/134/134 43/135/135 35/136/136
f 35/137/137 43/138/138 44/139/139 36/140/140
f 36/141/141 44/142/142 45/143/143 37/144/144
f 37/145/145 45/146/146 46/147/147 38/148/148
f 38/149/149 46/150/150 47/151/151 39/152/152
f 39/153/153 47/154/154 48/155/155 40/156/156
f 40/157/157 48/158/158 41/159/159 33/160/160
f 41/161/161 1/162/162 2/163/163 42/164/164
f 42/165/165 2/166/166 3/167/167 43/168/168
f 43/169/169 3/170/170 4/171/171 44/172/172
f 44/173/173 4/174/174 5/175/175 45/176/176
f 45/177/177 5/178/178 6/179/179 46/180/180
f 46/181/181 6/182/182 7/183/183 47/184/184
f 47/185/185 7/186/186 8/187/187 48/188/188
f 48/189/189 8/190/190 1/191/191 41/192/192
