# File exported by Houdini 16.0.600 (www.sidefx.com)
# 24 points
# 96 vertices
# 26 primitives
# Bounds: [-0.5, -0.5, -0.5] to [0.5, 0.5, 0.5]
g 
v 0.449999988 0.5 0.449999988
v -0.449999988 0.5 0.449999988
v -0.449999988 0.5 -0.449999988
v 0.449999988 0.5 -0.449999988
v -0.449999988 0.449999988 0.5
v 0.449999988 0.449999988 0.5
v 0.449999988 -0.449999988 0.5
v -0.449999988 -0.449999988 0.5
v -0.5 0.449999988 -0.449999988
v -0.5 0.449999988 0.449999988
v -0.5 -0.449999988 0.449999988
v -0.5 -0.449999988 -0.449999988
v 0.5 0.449999988 0.449999988
v 0.5 0.449999988 -0.449999988
v 0.5 -0.449999988 -0.449999988
v 0.5 -0.449999988 0.449999988
v 0.449999988 0.449999988 -0.5
v -0.449999988 0.449999988 -0.5
v -0.449999988 -0.449999988 -0.5
v 0.449999988 -0.449999988 -0.5
v -0.449999988 -0.5 -0.449999988
v -0.449999988 -0.5 0.449999988
v 0.449999988 -0.5 0.449999988
v 0.449999988 -0.5 -0.449999988
vt 0.360536098 0.670647383 0
vt 0.360536098 0.654325664 0
vt 0.654325664 0.654325664 0
vt 0.654325664 0.670647383 0
vt 0.0163216479 0.638004005 0
vt 0 0.638004005 0
vt 0 0.34421441 0
vt 0.0163216479 0.34421441 0
vt 0.360536098 0.326432884 0
vt 0.360536098 0.310111225 0
vt 0.654325664 0.310111225 0
vt 0.654325664 0.326432884 0
vt 0.310111225 0.34421441 0
vt 0.326432884 0.34421441 0
vt 0.326432884 0.638004005 0
vt 0.310111225 0.638004005 0
vt 0 0.0163216479 0
vt 0.0163216479 0.0163216479 0
vt 0.0163216479 0.310111225 0
vt 0 0.310111225 0
vt 0.360536098 0.360536098 0
vt 0.360536098 0.344214439 0
vt 0.654325664 0.344214439 0
vt 0.654325664 0.360536098 0
vt 0.670647383 0.982218504 0
vt 0.654325664 0.982218504 0
vt 0.654325664 0.688428879 0
vt 0.670647383 0.688428879 0
vt 0 0.688428879 0
vt 0.0163216479 0.688428879 0
vt 0.0163216479 0.982218504 0
vt 0 0.982218504 0
vt 0.360536098 0.982218504 0
vt 0.344214439 0.982218504 0
vt 0.344214439 0.688428879 0
vt 0.360536098 0.688428879 0
vt 0.310111225 0.0163216479 0
vt 0.326432884 0.0163216479 0
vt 0.326432884 0.310111225 0
vt 0.310111225 0.310111225 0
vt 0.326432884 0.982218504 0
vt 0.310111225 0.982218504 0
vt 0.310111225 0.688428879 0
vt 0.326432884 0.688428879 0
vt 0.360536098 0.0163216479 0
vt 0.360536098 0 0
vt 0.654325664 0 0
vt 0.654325664 0.0163216479 0
vt 0 0.310111225 0
vt 0.0163216479 0.310111225 0
vt 0.0163216479 0.326432884 0
vt 0.360536098 0.670647383 0
vt 0.344214439 0.654325664 0
vt 0.360536098 0.654325664 0
vt 0.654325664 0.326432884 0
vt 0.654325664 0.310111225 0
vt 0.670647383 0.310111225 0
vt 0.360536098 0.326432884 0
vt 0.344214439 0.310111225 0
vt 0.360536098 0.310111225 0
vt 0.670647383 0.0163216479 0
vt 0.654325664 0.0163216479 0
vt 0.654325664 0 0
vt 0.360536098 0.360536098 0
vt 0.344214439 0.360536098 0
vt 0.360536098 0.344214439 0
vt 0 0.0163216479 0
vt 0.0163216479 0 0
vt 0.0163216479 0.0163216479 0
vt 0.344214439 0.0163216479 0
vt 0.360536098 0 0
vt 0.360536098 0.0163216479 0
vt 0.360536098 0.310111225 0
vt 0.360536098 0.0163216479 0
vt 0.654325664 0.0163216479 0
vt 0.654325664 0.310111225 0
vt 0.0163216479 0.310111225 0
vt 0.0163216479 0.0163216479 0
vt 0.310111225 0.0163216479 0
vt 0.310111225 0.310111225 0
vt 0.360536098 0.654325664 0
vt 0.360536098 0.360536098 0
vt 0.654325664 0.360536098 0
vt 0.654325664 0.654325664 0
vt 0.360536098 0.982218504 0
vt 0.360536098 0.688428879 0
vt 0.654325664 0.688428879 0
vt 0.654325664 0.982218504 0
vt 0.310111225 0.688428879 0
vt 0.310111225 0.982218504 0
vt 0.0163216479 0.982218504 0
vt 0.0163216479 0.688428879 0
vt 0.310111225 0.34421441 0
vt 0.310111225 0.638004005 0
vt 0.0163216479 0.638004005 0
vt 0.0163216479 0.34421441 0
vn -0 0.707106769 0.707106769
vn 0 0.707106769 0.707106769
vn 0 0.707106769 0.707106769
vn -0 0.707106769 0.707106769
vn -0.707106769 0.707106769 -0
vn -0.707106769 0.707106769 -0
vn -0.707106769 0.707106769 -0
vn -0.707106769 0.707106769 -0
vn -0 0.707106769 -0.707106769
vn -0 0.707106769 -0.707106769
vn -0 0.707106769 -0.707106769
vn -0 0.707106769 -0.707106769
vn 0.707106769 0.707106769 0
vn 0.707106769 0.707106769 -0
vn 0.707106769 0.707106769 -0
vn 0.707106769 0.707106769 0
vn 0.707106769 -0 0.707106769
vn 0.707106769 0 0.707106769
vn 0.707106769 0 0.707106769
vn 0.707106769 -0 0.707106769
vn -0 -0.707106769 0.707106769
vn -0 -0.707106769 0.707106769
vn -0 -0.707106769 0.707106769
vn -0 -0.707106769 0.707106769
vn -0.707106769 -0 0.707106769
vn -0.707106769 -0 0.707106769
vn -0.707106769 -0 0.707106769
vn -0.707106769 -0 0.707106769
vn -0.707106769 -0.707106769 0
vn -0.707106769 -0.707106769 -0
vn -0.707106769 -0.707106769 -0
vn -0.707106769 -0.707106769 0
vn -0.707106769 -0 -0.707106769
vn -0.707106769 0 -0.707106769
vn -0.707106769 0 -0.707106769
vn -0.707106769 -0 -0.707106769
vn 0.707106769 -0 -0.707106769
vn 0.707106769 -0 -0.707106769
vn 0.707106769 -0 -0.707106769
vn 0.707106769 -0 -0.707106769
vn 0.707106769 -0.707106769 -0
vn 0.707106769 -0.707106769 -0
vn 0.707106769 -0.707106769 -0
vn 0.707106769 -0.707106769 -0
vn -0 -0.707106769 -0.707106769
vn 0 -0.707106769 -0.707106769
vn 0 -0.707106769 -0.707106769
vn -0 -0.707106769 -0.707106769
vn 0.577350259 0.577350259 0.577350259
vn 0.577350259 0.577350259 0.577350259
vn 0.577350259 0.577350259 0.577350259
vn -0.577350259 0.577350259 0.577350259
vn -0.577350259 0.577350259 0.577350259
vn -0.577350259 0.577350259 0.577350259
vn -0.577350259 0.577350259 -0.577350259
vn -0.577350259 0.577350259 -0.577350259
vn -0.577350259 0.577350259 -0.577350259
vn 0.577350259 0.577350259 -0.577350259
vn 0.577350259 0.577350259 -0.577350259
vn 0.577350259 0.577350259 -0.577350259
vn -0.577350259 -0.577350259 -0.577350259
vn -0.577350259 -0.577350259 -0.577350259
vn -0.577350259 -0.577350259 -0.577350259
vn -0.577350259 -0.577350259 0.577350259
vn -0.577350259 -0.577350259 0.577350259
vn -0.577350259 -0.577350259 0.577350259
vn 0.577350259 -0.577350259 0.577350259
vn 0.577350259 -0.577350259 0.577350259
vn 0.577350259 -0.577350259 0.577350259
vn 0.577350259 -0.577350259 -0.577350259
vn 0.577350259 -0.577350259 -0.577350259
vn 0.577350259 -0.577350259 -0.577350259
vn -0 0 -1
vn -0 -0 -1
vn 0 -0 -1
vn -0 -0 -1
vn 1 -0 -0
vn 1 -0 -0
vn 1 -0 -0
vn 1 0 0
vn -0 -0 1
vn -0 -0 1
vn 0 0 1
vn -0 -0 1
vn -1 -0 -0
vn -1 0 -0
vn -1 -0 -0
vn -1 -0 0
vn -0 -1 -0
vn 0 -1 -0
vn -0 -1 -0
vn -0 -1 0
vn -0 1 -0
vn -0 1 -0
vn -0 1 -0
vn 0 1 0
g Box
f 2/1/1 5/2/2 6/3/3 1/4/4
f 3/5/5 9/6/6 10/7/7 2/8/8
f 4/9/9 17/10/10 18/11/11 3/12/12
f 1/13/13 13/14/14 14/15/15 4/16/16
f 7/17/17 16/18/18 13/19/19 6/20/20
f 8/21/21 22/22/22 23/23/23 7/24/24
f 5/25/25 10/26/26 11/27/27 8/28/28
f 12/29/29 21/30/30 22/31/31 11/32/32
f 9/33/33 18/34/34 19/35/35 12/36/36
f 15/37/37 20/38/38 17/39/39 14/40/40
f 16/41/41 23/42/42 24/43/43 15/44/44
f 20/45/45 24/46/46 21/47/47 19/48/48
f 6/49/49 13/50/50 1/51/51
f 2/52/52 10/53/53 5/54/54
f 3/55/55 18/56/56 9/57/57
f 4/58/58 14/59/59 17/60/60
f 12/61/61 19/62/62 21/63/63
f 8/64/64 11/65/65 22/66/66
f 7/67/67 23/68/68 16/69/69
f 15/70/70 24/71/71 20/72/72
f 17/73/73 20/74/74 19/75/75 18/76/76
f 13/77/77 16/78/78 15/79/79 14/80/80
f 5/81/81 8/82/82 7/83/83 6/84/84
f 9/85/85 12/86/86 11/87/87 10/88/88
f 24/89/89 23/90/90 22/91/91 21/92/92
f 1/93/93 4/94/94 3/95/95 2/96/96
